<svg id="Layer_1" data-name="Layer 1" xmlns="http://www.w3.org/2000/svg" viewBox="0 0 122.88 122.1"><defs><style>.cls-1{fill-rule:evenodd;}</style></defs><title>entrepreneur-businessman</title><path class="cls-1" d="M50,84.18a2.86,2.86,0,0,0-1.45.38,1.17,1.17,0,0,0-.42.49,1.8,1.8,0,0,0-.13.77,6.75,6.75,0,0,0,1.37,3.33v0h0l2.88,4.07a24.72,24.72,0,0,0,3.86,5.08,7.94,7.94,0,0,0,5.52,2.22,8.06,8.06,0,0,0,5.83-2.32,25.39,25.39,0,0,0,4-5.42L74.73,88a5.13,5.13,0,0,0,.69-2.84c-.09-.32-.44-.48-1-.5a2.51,2.51,0,0,0-.39,0l-.45,0a.69.69,0,0,1-.25,0,3.86,3.86,0,0,1-.89-.05l1.11-4.91c-8.23,1.3-14.39-4.82-23.09-1.22L51,84.23a5.3,5.3,0,0,1-1,0ZM26.32,110.82V46.48H3.57v66H25a8,8,0,0,0-1.22,3.29l-.06.28H1.79A1.79,1.79,0,0,1,0,114.28V45.52a2.68,2.68,0,0,1,.77-1.86,2.63,2.63,0,0,1,1.86-.77H26.32V3.14A3.06,3.06,0,0,1,27.24.93h0A3.12,3.12,0,0,1,29.46,0H93.14a3.12,3.12,0,0,1,2.22.92l.14.15a3.09,3.09,0,0,1,.79,2.07V42.89h24a2.62,2.62,0,0,1,1.85.77v0a2.6,2.6,0,0,1,.77,1.84v68.76a1.79,1.79,0,0,1-1.79,1.79H99.16l-.06-.28a8.08,8.08,0,0,0-1.22-3.29h21.43v-66h-23v64l-.84-1.07h0a14.35,14.35,0,0,0-2.18-2.28l-.55-.43V3.57H29.89V106.91l-.26.21a13.12,13.12,0,0,0-2.19,2.28c-.43.56-.8,1-1.12,1.42Zm76.95-30.15h7.42c.16,0,.3.1.3.22v5.82c0,.12-.14.23-.3.23h-7.42c-.16,0-.3-.1-.3-.23V80.89c0-.12.14-.22.3-.22ZM12,80.67h7.42c.16,0,.3.1.3.22v5.82c0,.12-.14.23-.3.23H12c-.16,0-.3-.1-.3-.23V80.89c0-.12.14-.22.3-.22ZM37.9,10.5H84.71a1.43,1.43,0,0,1,1.42,1.43V32.79a1.43,1.43,0,0,1-1.42,1.43H37.9a1.44,1.44,0,0,1-1.43-1.43V11.93A1.43,1.43,0,0,1,37.9,10.5Zm65.37,57.44h7.42c.16,0,.3.1.3.22V74c0,.11-.14.22-.3.22h-7.42c-.16,0-.3-.1-.3-.22V68.16c0-.14.14-.22.3-.22Zm0-12.75h7.42c.16,0,.3.1.3.22v5.83c0,.11-.14.22-.3.22h-7.42c-.16,0-.3-.1-.3-.22V55.41c0-.12.14-.22.3-.22ZM12,67.94h7.42c.16,0,.3.1.3.22V74c0,.11-.14.22-.3.22H12c-.16,0-.3-.1-.3-.22V68.16c0-.14.14-.22.3-.22Zm0-12.75h7.42c.16,0,.3.1.3.22v5.83c0,.11-.14.22-.3.22H12c-.16,0-.3-.1-.3-.22V55.41c0-.12.14-.22.3-.22ZM75.39,63h9.27a.3.3,0,0,1,.29.3V73.85a.29.29,0,0,1-.29.29H80.92a18.14,18.14,0,0,0-1.24-5.23,15.39,15.39,0,0,0-2.88-4.57h0A17.87,17.87,0,0,0,75.39,63ZM37.94,63H48.46a16.65,16.65,0,0,0-2.26,2.34,14.85,14.85,0,0,0-2.65,5.19h0c-.13.47-.24.92-.32,1.36s-.14.87-.19,1.34l0,.28c0,.19,0,.4,0,.6H37.94a.3.3,0,0,1-.3-.29V63.32a.31.31,0,0,1,.3-.3ZM74.13,42.58H84.66a.3.3,0,0,1,.29.3V53.41a.3.3,0,0,1-.29.3H74.13a.31.31,0,0,1-.3-.3V42.88a.31.31,0,0,1,.3-.3Zm-18.1,0H66.56a.31.31,0,0,1,.3.3V53.41a.31.31,0,0,1-.3.3H56a.31.31,0,0,1-.3-.3V42.88a.31.31,0,0,1,.3-.3Zm-18.09,0H48.47a.31.31,0,0,1,.3.3V53.41a.31.31,0,0,1-.3.3H37.94a.31.31,0,0,1-.3-.3V42.88a.31.31,0,0,1,.3-.3Zm17.31,66v-5.69a16.67,16.67,0,0,1,5.39,2.45,2.8,2.8,0,0,1,1.26-.1l6-2.69-.22,6.28a16.22,16.22,0,0,1-3.93-1.48,3.26,3.26,0,0,1-.26,1.13L66,117.26c2-4.13,4-8.23,4.47-12.91a36.91,36.91,0,0,1-2.31-3.17c-.22-.31-.41-.6-.61-.87a9.84,9.84,0,0,1-12.12-.47l0,0c-.27.37-.57.81-.89,1.29-.62.89-1.3,1.9-2,2.74.87,5.43,2.95,9.25,4.84,13.33l2.54-8.81a3.11,3.11,0,0,1-.5-1.44l-4.16,1.55Zm13.3-9.07.67,1c.44.66.94,1.38,1.42,2,3.37,2.91,13,3.51,16.61,5.52a9.69,9.69,0,0,1,3,2.56c2.08,2.74,2.26,4.92,3,8.28-.19,2-1.3,3.09-3.49,3.26H33.09c-2.19-.16-3.3-1.29-3.49-3.26.75-3.37.93-5.53,3-8.28a9.45,9.45,0,0,1,3-2.56c3.42-1.9,12.28-2.54,16-5.09.59-.76,1.2-1.66,1.75-2.46.34-.5.65-1,.92-1.32a.46.46,0,0,1,.16-.15,28.54,28.54,0,0,1-3.58-4.87L48.05,90a8.33,8.33,0,0,1-1.63-4.18,3.15,3.15,0,0,1,.28-1.49,2.73,2.73,0,0,1,1-1.15,3.29,3.29,0,0,1,.7-.36,72.35,72.35,0,0,1-.14-8.23,10.39,10.39,0,0,1,5.21-8.05,13.22,13.22,0,0,1,2.62-1.27c1.65-.6.85-3.13,2.69-3.18,4.29-.09,11.33,3.54,14.08,6.51a11.15,11.15,0,0,1,2.81,7.05l-.18,7.46h0A2.08,2.08,0,0,1,77,84.7a6.49,6.49,0,0,1-.79,3.93h0l0,.09-3.28,4.91a26.29,26.29,0,0,1-4.26,5.77l-.07.08Z"/></svg>