<?xml version="1.0" encoding="utf-8"?><svg version="1.1" id="Layer_1" xmlns="http://www.w3.org/2000/svg" xmlns:xlink="http://www.w3.org/1999/xlink" x="0px" y="0px" viewBox="0 0 122.88 94.97" style="enable-background:new 0 0 122.88 94.97" xml:space="preserve"><style type="text/css">.st0{fill-rule:evenodd;clip-rule:evenodd;}</style><g><path class="st0" d="M72.14,94.97h6.43h35.84c0.72,0,1.3-0.58,1.3-1.3V60.4c1.46,0.56,2.82,0.57,3.95,0.19 c0.89-0.3,1.63-0.83,2.18-1.53c0.55-0.69,0.9-1.53,1-2.46c0.16-1.43-0.27-3.06-1.49-4.59l0,0c-0.06-0.08-0.13-0.15-0.21-0.21 l-3.74-2.74V33.14h-10.37v8.35L83.21,24.08c-0.46-0.42-1.17-0.46-1.68-0.07L67.27,34.4L44.82,18.05c-0.55-0.43-1.32-0.38-1.82,0.08 L1.89,48.18c-0.09,0.07-0.16,0.14-0.23,0.23l0,0c-1.33,1.65-1.8,3.42-1.62,4.97c0.11,1,0.49,1.91,1.09,2.66 c0.6,0.75,1.4,1.33,2.36,1.65c1.23,0.41,2.7,0.41,4.28-0.2v36.06c0,0.78,0.63,1.41,1.41,1.41H72.14L72.14,94.97z M79.99,63.48h5.43 v28.21l17.95,0h9.07V59.04c0-0.12,0.02-0.23,0.04-0.34L82.1,36.92l-5.67,4.15l9.58,6.98l0,0c0.06,0.05,0.11,0.1,0.17,0.15 c1.79,1.92,2.23,4.06,1.8,5.86c-0.21,0.89-0.64,1.69-1.23,2.35c-0.59,0.66-1.33,1.17-2.19,1.48c-1.35,0.49-2.96,0.47-4.58-0.3 V63.48L79.99,63.48z M67.34,5.16c1.92,0,3.65,0.78,4.91,2.03c1.26,1.26,2.03,2.99,2.03,4.91c0,1.92-0.78,3.65-2.03,4.91 c-1.26,1.26-2.99,2.03-4.91,2.03c-1.92,0-3.65-0.78-4.91-2.03c-1.26-1.26-2.03-2.99-2.03-4.91c0-1.92,0.78-3.65,2.03-4.91 C63.69,5.94,65.43,5.16,67.34,5.16L67.34,5.16z M61.15,2.6c-0.21-0.37-0.09-0.84,0.28-1.06c0.37-0.21,0.84-0.09,1.06,0.28l1,1.72 c0.21,0.37,0.09,0.85-0.28,1.06c-0.37,0.21-0.85,0.09-1.06-0.28L61.15,2.6L61.15,2.6z M66.73,0.78c0-0.43,0.35-0.78,0.78-0.78 s0.78,0.35,0.78,0.78v1.99c0,0.43-0.35,0.78-0.78,0.78s-0.78-0.35-0.78-0.78V0.78L66.73,0.78z M72.47,1.99 c0.21-0.37,0.69-0.5,1.06-0.29c0.37,0.21,0.5,0.69,0.29,1.06l-1,1.72c-0.21,0.37-0.69,0.5-1.06,0.29c-0.37-0.21-0.5-0.69-0.29-1.06 L72.47,1.99L72.47,1.99L72.47,1.99z M76.84,5.91c0.37-0.21,0.85-0.09,1.06,0.28c0.21,0.37,0.09,0.85-0.28,1.06l-1.73,1 c-0.37,0.22-0.84,0.09-1.06-0.28c-0.22-0.37-0.09-0.85,0.28-1.06L76.84,5.91L76.84,5.91z M78.67,11.49c0.43,0,0.78,0.35,0.78,0.78 c0,0.43-0.35,0.78-0.78,0.78h-1.99c-0.43,0-0.78-0.35-0.78-0.78c0-0.43,0.35-0.78,0.78-0.78H78.67L78.67,11.49z M77.46,17.23 c0.37,0.21,0.5,0.69,0.29,1.06c-0.21,0.37-0.69,0.5-1.06,0.29l-1.73-1c-0.37-0.21-0.5-0.69-0.29-1.06c0.21-0.37,0.69-0.5,1.06-0.29 L77.46,17.23L77.46,17.23L77.46,17.23z M73.54,21.6c0.22,0.37,0.09,0.85-0.28,1.06c-0.37,0.21-0.85,0.09-1.06-0.28l-1-1.72 c-0.21-0.37-0.09-0.85,0.28-1.06c0.37-0.21,0.84-0.09,1.06,0.28L73.54,21.6L73.54,21.6z M67.96,23.43c0,0.43-0.35,0.78-0.78,0.78 c-0.43,0-0.78-0.35-0.78-0.78v-1.99c0-0.43,0.35-0.78,0.78-0.78c0.43,0,0.78,0.35,0.78,0.78V23.43L67.96,23.43z M62.22,22.21 c-0.21,0.37-0.69,0.5-1.06,0.29c-0.37-0.21-0.5-0.69-0.29-1.06l1-1.72c0.21-0.37,0.69-0.5,1.06-0.29c0.37,0.21,0.5,0.69,0.29,1.06 L62.22,22.21L62.22,22.21z M57.85,18.3c-0.37,0.22-0.84,0.09-1.06-0.28c-0.21-0.37-0.09-0.85,0.28-1.06l1.72-1 c0.37-0.21,0.85-0.09,1.06,0.28c0.21,0.37,0.09,0.84-0.28,1.06L57.85,18.3L57.85,18.3L57.85,18.3z M56.02,12.72 c-0.43,0-0.78-0.35-0.78-0.78c0-0.43,0.35-0.78,0.78-0.78h1.99c0.43,0,0.78,0.35,0.78,0.78c0,0.43-0.35,0.78-0.78,0.78H56.02 L56.02,12.72z M57.23,6.97c-0.37-0.21-0.5-0.69-0.29-1.06c0.21-0.37,0.69-0.5,1.06-0.29l1.73,1c0.37,0.21,0.5,0.69,0.29,1.06 c-0.21,0.37-0.69,0.5-1.06,0.29L57.23,6.97L57.23,6.97L57.23,6.97z M32.88,63.91h22.37v27.51h11.73h9.45v-35.5 c0-0.09,0.01-0.18,0.03-0.27L44.2,32.04L11.27,55.66c0.03,0.12,0.05,0.24,0.05,0.36v35.39h9.83h11.73V63.91L32.88,63.91z M37.75,42.06h5.76v5.89h-5.76V42.06L37.75,42.06z M51.35,49.9h-5.76v5.89h5.76V49.9L51.35,49.9z M37.75,49.9h5.76v5.89h-5.76V49.9 L37.75,49.9z M51.35,42.06h-5.76v5.89h5.76V42.06L51.35,42.06z"/></g></svg>